<svg width="16" height="16" viewBox="0 0 20 20" fill="none" xmlns="http://www.w3.org/2000/svg">
<path d="M16.9996 9.25009C17.4138 9.25009 17.7496 9.58588 17.7496 10.0001C17.7496 13.166 15.1849 15.7999 11.9996 15.7999H4.776L5.4967 16.4386L5.55139 16.4923C5.80918 16.7717 5.81852 17.2064 5.56116 17.4972C5.3036 17.7875 4.87055 17.8314 4.56213 17.6095L4.50256 17.5616L2.46643 15.7569L2.39319 15.6847C2.07105 15.3306 2.0644 14.7879 2.37756 14.4259L2.44885 14.3517L4.48792 12.4513L4.54749 12.4015C4.85025 12.1722 5.28386 12.2047 5.54846 12.4884C5.83083 12.7914 5.81343 13.2665 5.51038 13.5489L4.70374 14.2999H11.9996C14.3372 14.2999 16.2496 12.357 16.2496 10.0001C16.2496 9.58599 16.5856 9.25028 16.9996 9.25009ZM14.4401 2.50107C14.6984 2.21142 15.1313 2.16893 15.4391 2.39169L15.4987 2.44052L17.6276 4.33798L17.7028 4.41318C18.0307 4.77767 18.0257 5.33616 17.691 5.69443L17.6139 5.76865L16.0377 7.11923L16.024 7.13095L15.4742 7.58017C15.1537 7.84223 14.6818 7.79515 14.4196 7.4747C14.1575 7.15425 14.2048 6.68235 14.525 6.42001L15.0612 5.98056L15.2721 5.7999H7.94983C5.6304 5.80009 3.74965 7.68062 3.74963 10.0001C3.74957 10.4143 3.41381 10.7501 2.99963 10.7501C2.58563 10.7499 2.24969 10.4141 2.24963 10.0001C2.24965 6.8522 4.80198 4.30009 7.94983 4.2999H15.3307L14.5006 3.55966L14.4459 3.50595C14.1894 3.22571 14.1819 2.7909 14.4401 2.50107Z" fill="#6574FC"/>
</svg>
