<svg width="129" height="43" viewBox="0 0 129 43" fill="none" xmlns="http://www.w3.org/2000/svg">
<path d="M35.4487 17.294C35.3746 17.4838 34.9481 19.1 33.1572 19.5386L27.3943 21.3892L27.5327 21.3628C26.2863 21.6532 25.7668 22.4541 25.5709 22.8897L25.4711 23.1612C25.468 23.1733 25.4665 23.1801 25.4665 23.1801V23.1741L22.2289 31.9598C22.2334 32.0354 22.1759 32.1005 22.1003 32.105L16.9538 33.7893C16.8782 33.7938 16.8131 33.7363 16.8086 33.6607L19.9978 24.0279C20.0266 23.9326 20.1158 23.7004 20.3117 23.6732L23.1962 22.7226C24.6255 22.0147 24.9402 20.2639 24.9402 20.2639L24.9439 20.31L27.302 12.754C27.7218 11.0539 29.3735 10.4867 29.4491 10.4821L38.489 7.57874C38.5646 7.5742 38.6296 7.63168 38.6342 7.70731L35.448 17.2947L35.4487 17.294Z" fill="url(#paint0_linear_2107_22132)"/>
<path d="M16.4838 24.0098C16.3288 24.6292 16.5708 24.7676 16.868 24.7419L17.5358 24.5113L17.5948 24.4833C17.5948 24.4833 17.5812 24.4916 17.557 24.5044L19.0159 24C19.0915 23.9962 19.1565 24.0537 19.1603 24.1293L16.4505 32.1792C16.4543 32.2548 16.3961 32.3191 16.3205 32.3237L14.4766 29.7273C14.3556 29.6683 14.4827 29.5829 14.4789 29.5073L15.816 25.8068C15.8833 25.3901 15.6806 25.2781 15.4454 25.2781L8.35604 27.5613C8.29403 27.5651 8.24109 27.5182 8.2373 27.4562L10.8223 20.0348C10.9977 19.6294 11.332 18.6259 12.6328 18.2719L19.1028 16.1294C19.1648 16.1256 19.2178 16.1725 19.2216 16.2345L16.4838 24.0113V24.0098Z" fill="url(#paint1_linear_2107_22132)"/>
<path fill-rule="evenodd" clip-rule="evenodd" d="M92.0527 20.1211C91.9226 20.4854 91.7806 20.8555 91.627 21.2314H100.74L100.553 23.1094H90.7637C90.5685 23.5205 90.4004 23.8448 90.2598 24.0801H97.0938C97.9591 24.0801 98.5721 24.2887 98.8955 24.7354L98.8965 24.7363C99.0059 24.8927 99.0615 25.0663 99.0615 25.2549L99.0605 25.2881C99.0498 25.6343 98.8733 26.0056 98.5498 26.3994L98.5479 26.4014C97.8164 27.2295 96.8818 27.9703 95.7451 28.624C97.1049 29.1362 98.7379 29.5931 100.645 29.9951L100.838 30.0361L100.968 30.0625L99.5908 31.8135L99.542 31.8037C97.3915 31.3907 95.3393 30.7228 93.3867 29.7998C91.5337 30.5809 89.4554 31.2202 87.1523 31.7178L87.1064 31.7275L85.6035 30.084L85.749 30.0566C87.7375 29.6838 89.5447 29.1911 91.1699 28.5781C90.2079 27.9775 89.3311 27.3519 88.541 26.7012C87.4314 28.1824 86.0378 29.6485 84.3613 31.0996L84.3213 31.1348L84.2725 31.1123L82.2734 30.1572L82.3701 30.0752C83.738 28.9068 84.9055 27.7535 85.873 26.6152C86.8097 25.5133 87.6126 24.3443 88.2822 23.1094H84.4941L84.7051 21.2314H89.2012L89.7148 20.0107H92.0928L92.0527 20.1211ZM99.3555 31.6836L99.5576 31.7227C99.3751 31.6876 99.1938 31.6481 99.0127 31.6094C99.1268 31.6338 99.2407 31.6606 99.3555 31.6836ZM90.4932 25.8721C91.3219 26.4674 92.2941 27.0521 93.4102 27.625C94.5444 27.0489 95.3965 26.5239 95.9688 26.0498C96.0391 25.9865 96.0902 25.9365 96.123 25.9004C96.1248 25.8984 96.1263 25.8964 96.1279 25.8945C96.1252 25.8939 96.1222 25.8932 96.1191 25.8926C96.0673 25.8817 95.9878 25.8746 95.8789 25.873L95.8301 25.8721H90.4932ZM98.4863 26.3467C98.4246 26.4165 98.3596 26.4841 98.2949 26.5527C98.3348 26.5104 98.3763 26.4695 98.415 26.4268L98.4863 26.3467ZM98.9775 25.291C98.9776 25.2892 98.9785 25.287 98.9785 25.2852V25.2705C98.9784 25.2773 98.9778 25.2842 98.9775 25.291ZM97.2764 24.167C97.2426 24.1658 97.2085 24.1636 97.1738 24.1631L97.0947 24.1621C97.1567 24.1621 97.2173 24.1648 97.2764 24.167Z" fill="black"/>
<path fill-rule="evenodd" clip-rule="evenodd" d="M75.3066 14.249H81.8945L81.6611 16.2129H76.9062L76.7334 17.6123H79.5537C80.0241 17.6124 80.3975 17.7371 80.6602 17.999C80.9383 18.2478 81.0703 18.6161 81.0703 19.0869V19.1494C81.0687 19.2917 81.0613 19.4044 81.0479 19.4854L80.6201 23.0586L80.6113 23.1309H67.1602C66.6584 26.6871 65.8169 29.5234 64.6328 31.6348L64.6016 31.6914L62.3809 31.0664L62.4336 30.9746C63.1864 29.6677 63.7765 28.225 64.2031 26.6465C64.5157 25.4813 64.808 23.7937 65.0791 21.582L65.7217 16.1006L65.7285 16.041C65.8042 15.4359 65.9697 14.9846 66.2363 14.7031C66.529 14.3952 66.9763 14.249 67.5596 14.249H72.8232L72.373 12.8145H74.792L75.3066 14.249ZM67.3945 21.2744H69.8633L70.0791 19.4688H67.5908L67.3945 21.2744ZM71.8496 21.2744H74.3184L74.5342 19.4688H72.0664L71.8496 21.2744ZM76.3047 21.2744H78.71L78.9453 19.4688H76.5205L76.3047 21.2744ZM80.9854 19.2363C80.9862 19.2087 80.9879 19.1792 80.9883 19.1484V19.0859C80.9883 19.1402 80.9868 19.1906 80.9854 19.2363ZM79.6699 17.6982C79.6455 17.6971 79.6208 17.6948 79.5957 17.6943H79.5537L79.6699 17.6982ZM67.8027 17.6123H70.291L70.4443 16.2129H67.9746L67.8027 17.6123ZM72.2793 17.6123H74.7461L74.8994 16.2129H72.4512L72.2793 17.6123ZM67.3975 14.3369C67.4501 14.3342 67.5041 14.332 67.5596 14.332H67.5059C67.4691 14.3326 67.433 14.3351 67.3975 14.3369Z" fill="black"/>
<path fill-rule="evenodd" clip-rule="evenodd" d="M116.113 19.625C116.592 19.625 116.969 19.7188 117.232 19.9189C117.508 20.118 117.652 20.3773 117.652 20.6924L117.651 20.7412C117.634 21.2413 117.351 21.6827 116.826 22.0654L116.825 22.0664L114.021 24.0156H120.939L120.684 26.0869H113.209L112.704 30.2119V30.2148L112.703 30.2168C112.616 30.6981 112.438 31.0668 112.164 31.3115C111.901 31.5594 111.521 31.6768 111.037 31.6768C110.945 31.6767 110.804 31.6655 110.617 31.6436L110.534 31.6328C109.551 31.4981 108.486 31.2377 107.342 30.8516L107.112 30.7725L107.049 30.75L107.35 28.5264L107.446 28.5615C108.698 29.0165 109.575 29.2847 110.081 29.3701H110.181C110.266 29.3701 110.333 29.3492 110.384 29.3115C110.434 29.2747 110.476 29.2169 110.507 29.1328L110.859 26.0869H103.041L103.297 24.0156H111.114L111.17 23.5527L111.174 23.5146L111.206 23.4941L113.997 21.6533H106.726L106.959 19.625H116.113ZM110.997 31.5938L111.037 31.5947C111.001 31.5947 110.956 31.5907 110.903 31.5869C110.938 31.5894 110.97 31.5929 110.997 31.5938ZM112.059 31.292C112.067 31.285 112.077 31.2797 112.085 31.2725L112.108 31.252C112.093 31.2665 112.075 31.2783 112.059 31.292ZM106.818 21.5713H114.27L114.271 21.5703L106.818 21.5713ZM117.562 20.8086C117.564 20.7852 117.569 20.7619 117.569 20.7383V20.6924C117.569 20.7314 117.565 20.7702 117.562 20.8086ZM116.224 19.71C116.216 19.7097 116.208 19.7092 116.2 19.709L116.113 19.707L116.224 19.71Z" fill="black"/>
<path fill-rule="evenodd" clip-rule="evenodd" d="M53.3984 29.7402C53.3397 30.2829 53.1473 30.7039 52.8135 30.9922C52.4813 31.2934 52.0467 31.4414 51.5176 31.4414C51.3447 31.4414 51.2042 31.434 51.0986 31.4189C49.8796 31.2468 48.6679 30.9456 47.4639 30.5156L47.4014 30.4932L47.6787 28.1846L47.7754 28.2178C48.64 28.5154 49.6187 28.7711 50.7119 28.9844H50.8105C50.8716 28.9844 50.9148 28.9666 50.9473 28.9365C50.9807 28.9054 51.0102 28.8543 51.0293 28.7734L52.9219 12.9219H55.251L53.3984 29.7402ZM51.5176 31.3584C51.4621 31.3584 51.4103 31.356 51.3623 31.3545C51.3918 31.3554 51.4227 31.358 51.4551 31.3584H51.5176ZM52.7598 30.9307C52.7354 30.9528 52.7092 30.9727 52.6836 30.9932C52.699 30.9809 52.7155 30.9699 52.7305 30.957L52.7598 30.9307ZM53.3018 29.835C53.3044 29.8168 53.3082 29.7987 53.3105 29.7803L53.3164 29.7305C53.3126 29.7658 53.3067 29.8008 53.3018 29.835Z" fill="black"/>
<path fill-rule="evenodd" clip-rule="evenodd" d="M70.1787 25.1084H73.7773L73.5654 26.9004H69.9893L69.7617 28.9648V29.0889L69.7627 29.1143C69.7655 29.1546 69.7748 29.175 69.7822 29.1846C69.7941 29.1865 69.8135 29.1885 69.8408 29.1885C69.8791 29.1885 69.9286 29.1845 69.9902 29.1777C71.085 29.007 72.2302 28.7445 73.4258 28.3887L73.5449 28.3525L73.3174 30.3613L73.3115 30.4141L73.2607 30.4307C72.7425 30.6034 72.0895 30.7684 71.3027 30.9258C70.5882 31.0687 69.8801 31.1899 69.1797 31.29C69.1013 31.3055 69.0034 31.3125 68.8877 31.3125C68.4674 31.3125 68.1289 31.1782 67.8838 30.9033L67.8604 30.876C67.614 30.5832 67.5255 30.2084 67.585 29.7627L68.3428 23.416H70.3721L70.1787 25.1084ZM68.8486 31.2295L68.8877 31.2305C68.8573 31.2305 68.8272 31.227 68.7979 31.2256C68.8147 31.2264 68.8315 31.2291 68.8486 31.2295ZM69.0498 31.2236C69.0817 31.221 69.111 31.2182 69.1377 31.2139L69.166 31.209C69.1322 31.2157 69.0932 31.2201 69.0498 31.2236ZM70.4902 30.9922C70.6657 30.9608 70.8422 30.9315 71.0186 30.8975L71.2861 30.8447L70.4902 30.9922Z" fill="black"/>
<path fill-rule="evenodd" clip-rule="evenodd" d="M76.3711 25.4707C78.0062 25.1067 79.4292 24.7087 80.6396 24.2773L80.7598 24.2344L80.5947 26.2129L80.5459 26.2314C79.4667 26.6291 78.0108 27.0119 76.1807 27.3799L76.0156 28.9473L76.0137 28.959C76.0017 29.0072 75.9951 29.0711 75.9951 29.1523L75.9961 29.1826C76.0003 29.237 76.0155 29.2593 76.0283 29.2686L76.0352 29.2715C76.0736 29.2906 76.156 29.3057 76.2979 29.3057H78.1826C79.3579 29.3057 80.3582 29.093 81.1865 28.6719L81.3262 28.6016L81.042 30.7314L80.999 30.749C80.2705 31.055 79.251 31.2051 77.9473 31.2051H75.6123C75.0871 31.205 74.6664 31.0888 74.3613 30.8447L74.3604 30.8438L74.2568 30.7461C74.0327 30.5066 73.9238 30.1862 73.9238 29.7949C73.9238 29.6542 73.9311 29.5422 73.9463 29.4629L74.5742 23.416H76.6045L76.3711 25.4707ZM75.5645 31.123H75.6123C75.5719 31.123 75.5322 31.1206 75.4932 31.1191C75.5167 31.12 75.5404 31.1227 75.5645 31.123ZM77.9473 31.123H78.0684C78.1429 31.1225 78.2165 31.1188 78.2891 31.1172C78.1775 31.1196 78.0636 31.123 77.9473 31.123ZM80.7725 30.7461C80.8153 30.7308 80.8584 30.7174 80.8994 30.7012L80.9668 30.6738C80.9046 30.7 80.8391 30.7222 80.7725 30.7461ZM74.0068 29.835C74.0069 29.8379 74.0077 29.8409 74.0078 29.8438C74.0074 29.8277 74.0059 29.8112 74.0059 29.7949L74.0068 29.835ZM80.3037 26.2295C80.3408 26.2165 80.3778 26.2044 80.4141 26.1914L80.5176 26.1543C80.4482 26.1799 80.3763 26.204 80.3037 26.2295Z" fill="black"/>
<path d="M61.668 26.8574H59.2051L56.7891 16.541H59.0996L61.668 26.8574Z" fill="black"/>
<path d="M46.1777 26.708H43.6025L47.498 16.3691H49.9648L46.1777 26.708Z" fill="black"/>
<path fill-rule="evenodd" clip-rule="evenodd" d="M99.418 15.7578C99.1082 16.4447 98.7795 17.1127 98.4316 17.7617H99.1934C99.8835 17.7617 100.403 17.8694 100.738 18.0977C101.082 18.3318 101.246 18.7189 101.246 19.2363V19.2998C101.245 19.4423 101.237 19.5605 101.224 19.6523L101.088 20.9463H98.8652L99.0146 19.6611H86.2217L86.0508 20.9678H83.873L84.0332 19.5479C84.1055 18.9265 84.2804 18.468 84.5723 18.1914C84.8801 17.899 85.3627 17.7617 86 17.7617H87.3652L86.8301 16.0703H88.9062L89.5059 17.7617H91.9688L91.3691 15.9414H93.4893L93.5088 15.9951L94.1533 17.7617H96.083C96.4859 17.0642 96.8407 16.3738 97.1475 15.6904L97.1689 15.6416H99.4707L99.418 15.7578ZM101.16 19.3691C101.161 19.3465 101.163 19.323 101.163 19.2988V19.2744C101.163 19.3074 101.161 19.339 101.16 19.3691ZM100.763 18.2207C100.749 18.2094 100.736 18.1962 100.722 18.1855L100.692 18.165C100.717 18.182 100.74 18.202 100.763 18.2207ZM85.9414 17.8447C85.916 17.8451 85.891 17.8468 85.8662 17.8477C85.9099 17.8462 85.9545 17.8438 86 17.8438L85.9414 17.8447ZM99.3545 17.8467C99.3224 17.8458 99.2898 17.8451 99.2568 17.8447L99.1934 17.8438C99.2483 17.8438 99.302 17.8453 99.3545 17.8467Z" fill="black"/>
<path fill-rule="evenodd" clip-rule="evenodd" d="M117.938 16.1553H118.833C119.538 16.1553 120.064 16.2909 120.387 16.582C120.724 16.8734 120.886 17.3067 120.886 17.8652V17.9336C120.884 18.0872 120.877 18.2114 120.864 18.3037L120.599 20.582H118.29L118.59 18.248H106.441L106.163 20.582H103.834L104.123 18.1348C104.21 17.4556 104.406 16.9473 104.725 16.6289C105.046 16.3072 105.544 16.1553 106.197 16.1553H115.464L117.198 12.8359H119.587L117.938 16.1553ZM120.801 18.0244C120.802 17.9955 120.803 17.9653 120.804 17.9336V17.8652C120.804 17.9222 120.802 17.9755 120.801 18.0244ZM105.031 16.4961C104.939 16.5511 104.856 16.6149 104.783 16.6875L104.756 16.7158C104.744 16.7289 104.733 16.7441 104.721 16.7578C104.742 16.7339 104.761 16.7095 104.783 16.6875C104.821 16.6499 104.861 16.6149 104.904 16.582L105.031 16.4961ZM120.333 16.6445C120.297 16.6116 120.257 16.5807 120.215 16.5518L120.211 16.5498C120.255 16.5794 120.296 16.6107 120.333 16.6445ZM106.017 16.2432C106.075 16.2404 106.136 16.2383 106.197 16.2383H106.137C106.096 16.2389 106.056 16.2413 106.017 16.2432ZM119.011 16.2422C118.974 16.2409 118.937 16.2388 118.898 16.2383H118.833L119.011 16.2422Z" fill="black"/>
<path fill-rule="evenodd" clip-rule="evenodd" d="M100.554 15.1143L100.485 15.1201C98.4851 15.2916 95.9852 15.449 92.9863 15.5918C90.6157 15.706 88.0519 15.8131 85.2959 15.9131L85.2002 15.917L85.4336 13.9307L85.5049 13.9277C88.3313 13.8421 90.7792 13.7421 92.8486 13.6279L93.4336 13.5938C96.3259 13.4198 98.7286 13.2452 100.642 13.0713L100.74 13.0625L100.554 15.1143Z" fill="black"/>
<path d="M109.534 15.8057H107.083L105.905 12.793H108.243L109.534 15.8057Z" fill="black"/>
<path d="M114.284 15.8057H111.899L110.857 12.793H113.129L114.284 15.8057Z" fill="black"/>
<defs>
<linearGradient id="paint0_linear_2107_22132" x1="17.1513" y1="8.11664" x2="41.4018" y2="29.3299" gradientUnits="userSpaceOnUse">
<stop stop-color="#0F70F4"/>
<stop offset="1" stop-color="#1148EB"/>
</linearGradient>
<linearGradient id="paint1_linear_2107_22132" x1="2.51567" y1="24.8901" x2="-7.04404" y2="15.1648" gradientUnits="userSpaceOnUse">
<stop stop-color="#72BC47"/>
<stop offset="0.37" stop-color="#95C742"/>
<stop offset="1" stop-color="#D4DF46"/>
</linearGradient>
</defs>
</svg>
