<svg xmlns="http://www.w3.org/2000/svg" width="20" height="20" viewBox="0 0 20 20" fill="none"><path d="M15.833 6.875a4.79 4.79 0 0 0-1.4-2.2C13.1 3.3 11.3 2.5 9.4 2.5c-1.9 0-3.7.8-5.033 2.175A4.79 4.79 0 0 0 2.5 6.9c0 1.1.34 2.1.9 2.9l.025 3.1c.017.2.1.4.25.5.2.2.4.2.6.1l2.2-.85c.55.2 1.1.3 1.7.3h.65c.35 0 .65-.2.8-.5l.05-.15c.25-.1.4-.2.4-.2 1.1-.2 2.1-.6 2.9-1.1 1.8-1.2 2.5-2.4 2.5-3.2 0-1.15-.3-2.1-.7-2.6Z" stroke="currentColor" stroke-width="1.2" stroke-linejoin="round"/><path d="M7.5 7.3h.01M9.5 7.3h.01M11.5 7.3h.01" stroke="currentColor" stroke-width="1.5" stroke-linecap="round"/></svg>
