<svg width="64" height="18" viewBox="0 0 64 18" fill="none" xmlns="http://www.w3.org/2000/svg">
<rect x="0.5" y="0.5" width="62.7896" height="17" rx="2.5" fill="white"/>
<rect x="0.5" y="0.5" width="62.7896" height="17" rx="2.5" stroke="#E0EAFF" stroke-linecap="round"/>
<path d="M12.582 5.02364C12.6693 5.0467 12.7515 5.08705 12.8232 5.1418C12.8949 5.19652 12.9548 5.26499 13 5.34298C13.0452 5.42104 13.0751 5.50744 13.0869 5.59688C13.0987 5.68624 13.0927 5.77739 13.0693 5.86446L11.9795 9.91524L13.4551 9.91622L13.5068 9.91817C13.6415 9.93089 13.7673 9.99307 13.8584 10.093C13.9495 10.1929 13.9997 10.3239 14 10.4592C13.9996 10.6033 13.9419 10.7412 13.8398 10.843C13.7377 10.9447 13.5992 11.0023 13.4551 11.0022H11.6865L11.2861 12.4914L11.2705 12.5422C11.2122 12.7052 11.0938 12.8407 10.9404 12.9211C10.7872 13.0013 10.6095 13.0214 10.4424 12.9768C10.3552 12.9537 10.2729 12.9133 10.2012 12.8586C10.1296 12.8039 10.0696 12.7354 10.0244 12.6574C9.97916 12.5794 9.94938 12.493 9.9375 12.4035C9.92567 12.3142 9.93179 12.223 9.95508 12.1359L10.2598 11.0022H8.93066L8.53027 12.4914L8.51465 12.5422C8.45631 12.7053 8.33798 12.8407 8.18457 12.9211C8.03133 13.0013 7.85361 13.0215 7.68652 12.9768C7.5993 12.9537 7.51703 12.9133 7.44531 12.8586C7.37366 12.8039 7.31378 12.7354 7.26855 12.6574C7.2233 12.5794 7.19352 12.493 7.18164 12.4035C7.16981 12.3142 7.17592 12.223 7.19922 12.1359L7.50391 11.0022H6.5459L6.49316 10.9992C6.21665 10.9728 6.00012 10.7413 6 10.4592C6.00012 10.3877 6.01451 10.3162 6.04199 10.2502C6.06943 10.1844 6.1097 10.1247 6.16016 10.0744C6.21075 10.024 6.27089 9.98349 6.33691 9.95626C6.40304 9.92903 6.47439 9.91509 6.5459 9.91524H7.7959L8.2832 8.10469H6.5459L6.49316 8.10274C6.21655 8.07633 6 7.84397 6 7.56173C6.00039 7.41745 6.05791 7.27877 6.16016 7.17696C6.26246 7.07512 6.40154 7.01845 6.5459 7.01876H8.5752L8.98242 5.50899L8.99805 5.45723C9.05636 5.29445 9.17406 5.15967 9.32715 5.0793C9.4805 4.99892 9.65892 4.97886 9.82617 5.02364C9.91341 5.04668 9.99565 5.08708 10.0674 5.1418C10.1389 5.19648 10.1989 5.26507 10.2441 5.34298C10.2893 5.42085 10.3191 5.50669 10.3311 5.59591C10.3429 5.68522 10.3367 5.77643 10.3135 5.86348L10.0029 7.01876H11.2725L11.3018 7.01973L11.3311 7.02169L11.7383 5.50899L11.7539 5.45723C11.8122 5.2944 11.9299 5.15972 12.083 5.0793C12.198 5.019 12.3273 4.99259 12.4551 5.00216L12.582 5.02364ZM9.47168 8.13985L8.99121 9.93477H10.3037L10.7852 8.13985H9.47168ZM13.6641 7.01876C13.8122 7.01956 13.9541 7.07882 14.0586 7.1838C14.1631 7.28882 14.2216 7.43113 14.2217 7.5793C14.2217 7.72747 14.1631 7.86975 14.0586 7.97481C13.9541 8.07981 13.8122 8.13905 13.6641 8.13985C13.5902 8.1402 13.5166 8.12682 13.4482 8.09883C13.3799 8.07081 13.318 8.02887 13.2656 7.97676C13.2134 7.92478 13.1719 7.86314 13.1436 7.79512C13.1152 7.72692 13.1006 7.65317 13.1006 7.5793C13.1006 7.50552 13.1152 7.4326 13.1436 7.36446C13.1719 7.29625 13.2133 7.23395 13.2656 7.18184C13.3179 7.12985 13.38 7.08874 13.4482 7.06075C13.5166 7.03273 13.5902 7.0184 13.6641 7.01876Z" fill="url(#paint0_linear_25433_23992)"/>
<path d="M17.6894 7.72694L17.9142 5.58872H19.2142L18.9165 4.42513H20.2865L20.5842 5.58872H21.8542L21.5565 4.42513H22.9265L23.2242 5.58872H24.1642L24.7065 4.42513H26.0565L25.5142 5.58872H26.8142L26.5894 7.72694H25.2894L25.2968 7.65733C24.7405 8.38333 24.1283 9.06955 23.4604 9.71599H26.4404L26.3108 10.9492H22.8608L22.5953 13.4753H19.7653L19.8897 12.2918H21.3997L21.5408 10.9492H17.3008L17.4304 9.71599H21.9004C22.2649 9.38779 22.6094 9.0596 22.9439 8.73141H18.8539L18.9594 7.72694H17.6894ZM19.0093 7.53798H25.3093L25.3887 6.78215H19.0887L19.0093 7.53798ZM30.8553 13.4753L31.356 8.71152H36.276L35.7753 13.4753H34.4853L34.5783 12.5902H32.2383L32.1453 13.4753H30.8553ZM27.2568 9.84527C27.5416 8.56234 27.7333 7.30924 27.8703 6.00642H28.8103C28.6723 7.31919 28.4916 8.56234 28.2368 9.84527H27.2568ZM28.2769 13.5548L29.2344 4.44502H30.4944L30.2268 6.991L30.9493 7.53798L30.7956 8.99993L30.0731 8.45294L29.5369 13.5548H28.2769ZM30.9452 8.43305L31.0529 7.40869H33.3729L33.4095 7.06061H31.4995L31.603 6.07604H33.513L33.5495 5.72795H31.3895L31.4951 4.72349H33.6551L33.6969 4.32568H34.9969L34.9551 4.72349H36.9851L36.8795 5.72795H34.8495L34.813 6.07604H36.593L36.4895 7.06061H34.7095L34.6729 7.40869H36.8629L36.7552 8.43305H30.9452ZM32.3397 11.6255H34.6797L34.7267 11.1779H32.3867L32.3397 11.6255ZM32.4881 10.2132H34.8281L34.8752 9.76571H32.5352L32.4881 10.2132ZM42.0453 13.4753L42.178 12.2122H43.558L43.9686 9.44746H41.6286C40.9239 11.5857 39.4444 13.0079 37.2311 13.5151L37.3712 12.1824C38.843 11.7846 39.8423 10.8398 40.3386 9.44746H38.7086L38.8236 8.35349C38.3943 8.63196 37.9192 8.87064 37.3983 9.06955L37.5572 7.55787C38.9631 6.93132 39.8776 5.9368 40.4565 4.42513H41.8065C41.2903 6.00642 40.3875 7.26946 39.0924 8.17448H45.0924C43.9875 7.26946 43.3503 6.00642 43.1665 4.42513H44.5165C44.7776 5.9368 45.4831 6.93132 46.7572 7.55787L46.5983 9.06955C46.1682 8.88059 45.7801 8.67174 45.4263 8.42311L44.7053 13.4753H42.0453ZM50.5653 13.4753C51.2322 12.1725 51.4776 10.979 51.6208 9.61653L52.1351 4.72349C53.4951 4.72349 55.5145 4.63398 56.7523 4.46491L56.6206 5.71801C55.757 5.84729 54.4386 5.92686 53.2255 5.95669L53.099 7.16006H56.749L56.6173 8.41316H55.9173L55.3853 13.4753H54.1253L54.6573 8.41316H52.9673L52.8408 9.61653C52.7018 10.9392 52.4049 12.2421 51.8953 13.4753H50.5653ZM46.9196 12.9581C47.4678 11.168 47.8495 9.24856 48.0659 7.1899H49.1259C48.9367 8.98998 48.6245 11.0089 48.0496 12.9581H46.9196ZM47.7487 6.78215L47.8784 5.54894H49.4284L49.5413 4.47485H50.8613L50.7484 5.54894H51.6684L51.5387 6.78215H50.6887L50.5602 8.00541L51.2179 8.50267L51.0601 10.0044L50.4023 9.50714L49.9853 13.4753H48.7053L49.4087 6.78215H47.7487Z" fill="#646B8A"/>
<defs>
<linearGradient id="paint0_linear_25433_23992" x1="10.1108" y1="5.00024" x2="10.1108" y2="13.0001" gradientUnits="userSpaceOnUse">
<stop stop-color="#32C624"/>
<stop offset="1" stop-color="#32C624" stop-opacity="0.5"/>
</linearGradient>
</defs>
</svg>
