<svg width="64" height="18" viewBox="0 0 64 18" fill="none" xmlns="http://www.w3.org/2000/svg">
<rect x="0.5" y="0.5" width="62.7896" height="17" rx="2.5" fill="white"/>
<rect x="0.5" y="0.5" width="62.7896" height="17" rx="2.5" stroke="#E0EAFF" stroke-linecap="round"/>
<path d="M12.582 5.0236C12.6692 5.04664 12.7516 5.08611 12.8232 5.14078C12.895 5.19554 12.9547 5.26485 13 5.34293C13.0451 5.42086 13.075 5.5066 13.0869 5.59586C13.0988 5.68522 13.0926 5.77636 13.0693 5.86344L11.9795 9.9152H13.4551L13.5078 9.91813C13.6423 9.93093 13.7674 9.99315 13.8584 10.0929C13.9495 10.1929 13.9997 10.3239 14 10.4591C13.9995 10.6033 13.942 10.7412 13.8398 10.8429C13.7376 10.9447 13.5993 11.0024 13.4551 11.0021H11.6865L11.2861 12.4914L11.2705 12.5422C11.2122 12.7051 11.0946 12.8407 10.9414 12.9211C10.7881 13.0014 10.6096 13.0215 10.4424 12.9767C10.3552 12.9537 10.2729 12.9133 10.2012 12.8586C10.1296 12.8039 10.0696 12.7353 10.0244 12.6574C9.97916 12.5793 9.94938 12.4929 9.9375 12.4035C9.92566 12.3141 9.93178 12.223 9.95508 12.1359L10.2598 11.0021H8.93066L8.53027 12.4914L8.51465 12.5422C8.45631 12.7052 8.33799 12.8407 8.18457 12.9211C8.03133 13.0013 7.8536 13.0214 7.68652 12.9767C7.5993 12.9537 7.51703 12.9133 7.44531 12.8586C7.37367 12.8039 7.31378 12.7354 7.26855 12.6574C7.2233 12.5793 7.19352 12.4929 7.18164 12.4035C7.1698 12.3141 7.17592 12.223 7.19922 12.1359L7.50391 11.0021H6.5459L6.49316 10.9992C6.21668 10.9728 6.00018 10.7412 6 10.4591C6.00012 10.3876 6.01451 10.3162 6.04199 10.2502C6.06942 10.1844 6.1097 10.1247 6.16016 10.0744C6.21074 10.024 6.27091 9.98344 6.33691 9.95621C6.40304 9.92898 6.47439 9.91505 6.5459 9.9152H7.7959L8.2832 8.10465H6.5459L6.49316 8.1027C6.21654 8.07629 6 7.84393 6 7.56168C6.00033 7.41735 6.0579 7.27877 6.16016 7.17692C6.26247 7.07504 6.40151 7.0184 6.5459 7.01871H8.57617L8.98242 5.50895L8.99805 5.45719C9.05638 5.29416 9.17476 5.15867 9.32812 5.07828C9.48135 4.99815 9.65912 4.97887 9.82617 5.0236C9.91342 5.04663 9.99564 5.08605 10.0674 5.14078C10.139 5.19543 10.1989 5.26405 10.2441 5.34196C10.2894 5.41996 10.3191 5.50647 10.3311 5.59586C10.3429 5.68528 10.3368 5.77629 10.3135 5.86344L10.0029 7.01871H11.2734L11.3018 7.01969L11.3311 7.02164L11.7383 5.50895L11.7539 5.45719C11.8122 5.29407 11.9306 5.15872 12.084 5.07828C12.2372 4.99806 12.4149 4.97887 12.582 5.0236ZM9.47266 8.13981L8.99121 9.93473H10.3037L10.7852 8.13981H9.47266ZM13.6641 7.01871C13.8123 7.01945 13.954 7.07872 14.0586 7.18375C14.1632 7.28883 14.2217 7.43101 14.2217 7.57926C14.2217 7.72752 14.1632 7.86968 14.0586 7.97477C13.954 8.07981 13.8123 8.13907 13.6641 8.13981C13.5902 8.14016 13.5166 8.12584 13.4482 8.09782C13.38 8.0698 13.3179 8.02874 13.2656 7.97672C13.2133 7.92463 13.1719 7.86229 13.1436 7.7941C13.1153 7.72598 13.1006 7.65302 13.1006 7.57926C13.1006 7.5055 13.1153 7.43255 13.1436 7.36442C13.1719 7.29622 13.2133 7.2339 13.2656 7.1818C13.3179 7.12978 13.38 7.08873 13.4482 7.06071C13.5166 7.03268 13.5902 7.01836 13.6641 7.01871Z" fill="url(#paint0_linear_25433_23987)"/>
<path d="M21.6453 13.4753C22.525 12.431 23.216 11.5658 23.7663 10.6111L23.3556 8.99993H22.2356C22.9124 7.50815 23.3892 6.01636 23.7644 4.44502H25.0544C24.9768 4.80305 24.8902 5.15113 24.7936 5.49921H26.9536L26.8177 6.79209H26.4477C26.1088 8.30376 25.7397 9.43752 25.2751 10.432L26.2153 13.4753H24.8353L24.3594 11.9139C24.035 12.431 23.6617 12.9382 23.2453 13.4753H21.6453ZM17.2666 10.3226L18.3445 8.15459H17.4945L17.6137 7.02083H19.2837L19.3516 6.37439H18.0416L18.1608 5.24064H19.4708L19.546 4.52458H20.806L20.7308 5.24064H21.3308L21.2262 6.23516L21.809 4.97212H23.089L22.1437 7.02083H22.5837L22.4645 8.15459H19.6645L19.4364 8.61207H22.0764L20.9504 10.3823L22.7128 10.074L22.5915 11.2277L20.656 11.5658L20.4553 13.4753H18.1653L18.2834 12.3515H19.3134L19.3928 11.5956L17.1921 11.9835L17.3133 10.8299L19.6262 10.4221L20.0883 9.73588H18.8783L18.5866 10.3226H17.2666ZM20.5437 7.02083H20.8637L21.1616 6.37439H20.6116L20.5437 7.02083ZM24.2502 7.33908L24.6088 8.97009C24.8557 8.3336 25.0809 7.61754 25.2677 6.79209H24.4277L24.2502 7.33908ZM27.6894 7.72694L27.9142 5.58872H29.2142L28.9165 4.42513H30.2865L30.5842 5.58872H31.8542L31.5565 4.42513H32.9265L33.2242 5.58872H34.1642L34.7065 4.42513H36.0565L35.5142 5.58872H36.8142L36.5894 7.72694H35.2894L35.2968 7.65733C34.7405 8.38333 34.1283 9.06955 33.4604 9.71599H36.4404L36.3108 10.9492H32.8608L32.5953 13.4753H29.7653L29.8897 12.2918H31.3997L31.5408 10.9492H27.3008L27.4304 9.71599H31.9004C32.2649 9.38779 32.6094 9.0596 32.9439 8.73141H28.8539L28.9594 7.72694H27.6894ZM29.0093 7.53798H35.3093L35.3887 6.78215H29.0887L29.0093 7.53798ZM37.4921 9.12922L37.7168 6.991H41.5568L41.6112 6.47384H42.0812L42.1543 5.77768C42.1643 5.77768 42.1654 5.76773 42.1754 5.76773H41.2254L41.4882 6.69264H40.1382L39.8743 5.77768C39.3237 6.3545 38.5756 6.81198 37.7178 6.98105L37.8443 5.77768C38.4825 5.50916 38.9933 5.12129 39.3508 4.57431H42.4408L42.3227 5.69812C42.8799 5.43954 43.3385 5.07157 43.6608 4.57431H46.9708L46.8454 5.76773H45.5454L45.8082 6.69264H44.4582L44.1954 5.76773C43.8356 6.14565 43.4022 6.4639 42.9082 6.69264L42.8768 6.991H46.7168L46.4921 9.12922H45.2621L45.0854 10.81H39.5654L39.5288 11.158H45.6988L45.4553 13.4753H37.9853L38.4421 9.12922H37.4921ZM38.859 8.49272H45.259L45.3039 8.06508H38.9039L38.859 8.49272ZM39.3825 12.5504H44.2525L44.3016 12.0829H39.4316L39.3825 12.5504ZM39.6637 9.87511H43.8837L43.9297 9.43752H39.7097L39.6637 9.87511ZM56.0688 9.63642H54.2588L54.1887 10.3028H56.1587L56.0364 11.4663H54.0664L53.9912 12.1824H56.2412L56.1168 13.3659H50.2968L50.3898 12.4808L47.0323 13.0277L47.1661 11.7548L48.2239 11.5857L48.4747 9.19883H47.6247L47.7564 7.94574H48.6064L48.8082 6.02631H47.8182L47.952 4.75332H51.062L50.9282 6.02631H50.0882L49.8864 7.94574H50.6464L50.5147 9.19883H49.7547L49.5269 11.3669L50.5236 11.2078L50.4212 12.1824H52.6712L52.7464 11.4663H50.7664L50.8887 10.3028H52.8687L52.9388 9.63642H51.1188L51.6393 4.6837H56.5893L56.0688 9.63642ZM52.4821 8.46289H53.1521L53.2315 7.70705H52.5615L52.4821 8.46289ZM52.6776 6.60313H53.3476L53.427 5.84729H52.757L52.6776 6.60313ZM54.2921 8.46289H54.9521L55.0315 7.70705H54.3715L54.2921 8.46289ZM54.4876 6.60313H55.1476L55.227 5.84729H54.567L54.4876 6.60313Z" fill="#646B8A"/>
<defs>
<linearGradient id="paint0_linear_25433_23987" x1="10.1108" y1="5" x2="10.1108" y2="13.0001" gradientUnits="userSpaceOnUse">
<stop stop-color="#6574FC"/>
<stop offset="1" stop-color="#6574FC" stop-opacity="0.5"/>
</linearGradient>
</defs>
</svg>
