<svg width="64" height="18" viewBox="0 0 64 18" fill="none" xmlns="http://www.w3.org/2000/svg">
<rect x="0.5" y="0.5" width="62.7896" height="17" rx="2.5" fill="white"/>
<rect x="0.5" y="0.5" width="62.7896" height="17" rx="2.5" stroke="#E0EAFF" stroke-linecap="round"/>
<path d="M12.582 5.0236C12.6692 5.04664 12.7516 5.08611 12.8232 5.14078C12.895 5.19554 12.9547 5.26485 13 5.34293C13.0451 5.42086 13.075 5.5066 13.0869 5.59586C13.0988 5.68522 13.0926 5.77636 13.0693 5.86344L11.9795 9.9152H13.4551L13.5078 9.91813C13.6423 9.93093 13.7674 9.99315 13.8584 10.0929C13.9495 10.1929 13.9997 10.3239 14 10.4591C13.9995 10.6033 13.942 10.7412 13.8398 10.8429C13.7376 10.9447 13.5993 11.0024 13.4551 11.0021H11.6865L11.2861 12.4914L11.2705 12.5422C11.2122 12.7051 11.0946 12.8407 10.9414 12.9211C10.7881 13.0014 10.6096 13.0215 10.4424 12.9767C10.3552 12.9537 10.2729 12.9133 10.2012 12.8586C10.1296 12.8039 10.0696 12.7353 10.0244 12.6574C9.97916 12.5793 9.94938 12.4929 9.9375 12.4035C9.92566 12.3141 9.93178 12.223 9.95508 12.1359L10.2598 11.0021H8.93066L8.53027 12.4914L8.51465 12.5422C8.45631 12.7052 8.33799 12.8407 8.18457 12.9211C8.03133 13.0013 7.8536 13.0214 7.68652 12.9767C7.5993 12.9537 7.51703 12.9133 7.44531 12.8586C7.37367 12.8039 7.31378 12.7354 7.26855 12.6574C7.2233 12.5793 7.19352 12.4929 7.18164 12.4035C7.1698 12.3141 7.17592 12.223 7.19922 12.1359L7.50391 11.0021H6.5459L6.49316 10.9992C6.21668 10.9728 6.00018 10.7412 6 10.4591C6.00012 10.3876 6.01451 10.3162 6.04199 10.2502C6.06942 10.1844 6.1097 10.1247 6.16016 10.0744C6.21074 10.024 6.27091 9.98344 6.33691 9.95621C6.40304 9.92898 6.47439 9.91505 6.5459 9.9152H7.7959L8.2832 8.10465H6.5459L6.49316 8.1027C6.21654 8.07629 6 7.84393 6 7.56168C6.00033 7.41735 6.0579 7.27877 6.16016 7.17692C6.26247 7.07504 6.40151 7.0184 6.5459 7.01871H8.57617L8.98242 5.50895L8.99805 5.45719C9.05638 5.29416 9.17476 5.15867 9.32812 5.07828C9.48135 4.99815 9.65912 4.97887 9.82617 5.0236C9.91342 5.04663 9.99564 5.08605 10.0674 5.14078C10.139 5.19543 10.1989 5.26405 10.2441 5.34196C10.2894 5.41996 10.3191 5.50647 10.3311 5.59586C10.3429 5.68528 10.3368 5.77629 10.3135 5.86344L10.0029 7.01871H11.2734L11.3018 7.01969L11.3311 7.02164L11.7383 5.50895L11.7539 5.45719C11.8122 5.29407 11.9306 5.15872 12.084 5.07828C12.2372 4.99806 12.4149 4.97887 12.582 5.0236ZM9.47266 8.13981L8.99121 9.93473H10.3037L10.7852 8.13981H9.47266ZM13.6641 7.01871C13.8123 7.01945 13.954 7.07872 14.0586 7.18375C14.1632 7.28883 14.2217 7.43101 14.2217 7.57926C14.2217 7.72752 14.1632 7.86968 14.0586 7.97477C13.954 8.07981 13.8123 8.13907 13.6641 8.13981C13.5902 8.14016 13.5166 8.12584 13.4482 8.09782C13.38 8.0698 13.3179 8.02874 13.2656 7.97672C13.2133 7.92463 13.1719 7.86229 13.1436 7.7941C13.1153 7.72598 13.1006 7.65302 13.1006 7.57926C13.1006 7.5055 13.1153 7.43255 13.1436 7.36442C13.1719 7.29622 13.2133 7.2339 13.2656 7.1818C13.3179 7.12978 13.38 7.08873 13.4482 7.06071C13.5166 7.03268 13.5902 7.01836 13.6641 7.01871Z" fill="url(#paint0_linear_25433_23997)"/>
<path d="M20.5348 13.5747C21.4585 12.1128 21.9706 10.7602 22.1473 9.07949L22.626 4.52458H23.866L23.3873 9.07949C23.2117 10.7503 22.7985 12.1128 21.9648 13.5747H20.5348ZM17.0323 13.0277L17.1661 11.7548L18.0818 11.6056L18.3347 9.19883H17.5847L17.7164 7.94574H18.4664L18.6682 6.02631H17.8182L17.952 4.75332H20.882L20.7482 6.02631H19.9382L19.7364 7.94574H20.4864L20.3547 9.19883H19.6047L19.3727 11.4067L20.2173 11.2674L20.0835 12.5404L17.0323 13.0277ZM20.4239 10.9194L21.0061 5.37987H22.0461L21.4639 10.9194H20.4239ZM22.9141 13.2963L23.0479 12.0233H24.1179L24.4043 9.29829H23.6343L23.766 8.04519H24.536L24.7482 6.02631H23.9082L24.042 4.75332H27.052L26.9182 6.02631H26.0182L25.806 8.04519H26.616L26.4843 9.29829H25.6743L25.3879 12.0233H26.2879L26.1541 13.2963H22.9141ZM32.4653 13.4753C32.9726 12.7393 33.3958 12.0432 33.759 11.347L32.6683 10.4022C32.3985 11.4465 32.0129 12.4509 31.4853 13.4753H30.0353C30.132 13.3162 30.2287 13.157 30.3154 12.9979L27.0436 13.3957L27.1774 12.1227L30.5813 11.705L30.4778 12.6896C31.3051 11.0984 31.6682 9.54692 31.8427 7.88607L32.0591 5.8274H31.2791L31.4056 4.62403H36.1456L35.3668 6.991H36.6368C36.2696 8.58223 35.8605 9.90494 35.2967 11.1779L36.2868 12.0332L36.1248 13.5747L34.6117 12.2719C34.4099 12.6697 34.1781 13.0675 33.9353 13.4753H32.4653ZM27.5018 8.08497L29.376 4.52458H30.716L29.1971 7.36891L29.633 7.59765L30.2353 6.43406H31.5353L29.7337 9.87511H30.8337L30.704 11.1083H27.494L28.7328 8.74135L27.5018 8.08497ZM32.9661 8.90048L34.4513 10.1834C34.7282 9.54692 34.9571 8.89053 35.1614 8.18442H33.7514L34.5191 5.8274H33.3191L33.1027 7.88607C33.0661 8.23415 33.0206 8.57229 32.9661 8.90048ZM37.2653 13.4753L37.3917 12.2719H38.1617L38.3677 10.3127L37.2994 10.5812L37.4447 9.19883L38.513 8.93031L38.7043 7.11034H37.7643L37.896 5.85724H38.836L38.9813 4.47485H40.2813L40.136 5.85724H40.866L40.7343 7.11034H40.0043L39.8485 8.59218L40.5984 8.40322L40.4531 9.7856L39.7032 9.97456L39.3353 13.4753H37.2653ZM39.7053 13.4753C40.6186 12.3017 41.0346 11.1978 41.2001 10.0044H42.4701C42.3221 10.6508 42.2178 11.168 42.0192 11.7249C42.2583 11.9238 42.5158 12.0432 42.9506 12.0929L43.1962 9.75577H40.6762L40.7954 8.62201H46.5954L46.4762 9.75577H44.4762L44.4104 10.3823H46.1904L46.0796 11.4365H44.2996L44.2253 12.1426H46.2753L46.1457 13.3758H43.7157C42.7557 13.3758 42.112 13.3162 41.4969 12.8885C41.3981 13.0675 41.2872 13.2664 41.1653 13.4753H39.7053ZM41.3761 8.23415L41.7618 4.56436H46.4818L46.0961 8.23415H41.3761ZM42.7523 7.31919H44.9123L44.9656 6.81198H42.8056L42.7523 7.31919ZM42.8945 5.96664H45.0545L45.1067 5.46938H42.9467L42.8945 5.96664ZM52.0453 13.4753L52.178 12.2122H53.558L53.9686 9.44746H51.6286C50.9239 11.5857 49.4444 13.0079 47.2311 13.5151L47.3712 12.1824C48.843 11.7846 49.8423 10.8398 50.3386 9.44746H48.7086L48.8236 8.35349C48.3943 8.63196 47.9192 8.87064 47.3983 9.06955L47.5572 7.55787C48.9631 6.93132 49.8776 5.9368 50.4565 4.42513H51.8065C51.2903 6.00642 50.3875 7.26946 49.0924 8.17448H55.0924C53.9875 7.26946 53.3503 6.00642 53.1665 4.42513H54.5165C54.7776 5.9368 55.4831 6.93132 56.7572 7.55787L56.5983 9.06955C56.1682 8.88059 55.7801 8.67174 55.4263 8.42311L54.7053 13.4753H52.0453Z" fill="#646B8A"/>
<defs>
<linearGradient id="paint0_linear_25433_23997" x1="10.1108" y1="5" x2="10.1108" y2="13.0001" gradientUnits="userSpaceOnUse">
<stop stop-color="#60B0FF"/>
<stop offset="1" stop-color="#60B0FF" stop-opacity="0.5"/>
</linearGradient>
</defs>
</svg>
